<svg width="129" height="36" fill="none" xmlns="http://www.w3.org/2000/svg"><path fill-rule="evenodd" clip-rule="evenodd" d="M60.803 28.797c-3.009 0-5.457-2.43-5.457-5.417 0-2.987 2.448-5.417 5.457-5.417 3.008 0 5.456 2.43 5.456 5.417 0 2.988-2.448 5.417-5.456 5.417zm0-17.704c-6.824 0-12.376 5.512-12.376 12.287 0 6.776 5.552 12.289 12.376 12.289s12.375-5.513 12.375-12.289c0-6.775-5.551-12.287-12.375-12.287zm28.141.584h-3.378V4.424h-7.398v7.253H74.79v6.648h3.378v16.76h7.398v-16.76h3.378v-6.648zm3.393 23.407h7.397V11.677h-7.397v23.407zM96.505.332c-2.271 0-4.12 1.836-4.12 4.092 0 2.255 1.849 4.091 4.12 4.091 2.273 0 4.122-1.836 4.122-4.091 0-2.256-1.849-4.092-4.121-4.092zm19.202 28.577c-3.07 0-5.568-2.48-5.568-5.529s2.498-5.53 5.568-5.53c3.071 0 5.569 2.481 5.569 5.53 0 3.049-2.498 5.529-5.569 5.529zm12.941 6.175V11.676h-7.211v2.461l-.668-.593c-1.808-1.604-3.83-2.452-6.211-2.452-6.364 0-11.74 5.626-11.74 12.288s5.376 12.289 11.74 12.289c2.381 0 4.403-.848 6.211-2.453l.668-.593v2.461h7.211zM22.96 28.785c.53-1.274.758-2.565.758-4.313 0-2.363-.745-4.474-2.1-5.946-1.58-1.718-4.279-3.144-8.024-4.24a13.443 13.443 0 01-2.103-.784 5.115 5.115 0 01-1.567-1.159c-.48-.514-.674-1.125-.674-1.896 0-1.088.587-1.824 1.54-2.42 1.196-.748 3.496-.822 5.848.044.818.301 1.551.634 2.386 1.121l3.144-6.212C21 2.287 19.338 1.385 17.66.962a19.988 19.988 0 00-5.024-.63c-1.73 0-3.31.26-4.694.77-1.232.453-2.507 1.279-3.593 2.323-.984.948-1.876 2.3-2.39 3.552-.525 1.281-.79 2.736-.79 4.328 0 1.66.79 4.347 2.786 6.204 2.154 2.006 4.597 2.718 5.58 3.095.974.373 2.065.695 2.757.968.73.29 1.554.674 2.025 1.024.507.377.849.718 1.079 1.192.223.465.28.886.23 1.492-.064.772-.418 1.427-1.052 2.019-.634.592-1.778.931-3.4.931-1.362 0-2.746-.379-4.126-.986-1.215-.533-2.054-1.003-3.35-1.764L0 31.877c2.58 2.274 6.763 3.792 10.488 3.792 1.904 0 3.882-.315 5.574-.884 1.595-.537 3.174-1.414 4.223-2.344 1.125-.999 2.15-2.4 2.674-3.657zm20.257-2.011a5.462 5.462 0 01-4.248 2.023c-3.009 0-5.457-2.43-5.457-5.416 0-2.988 2.448-5.418 5.456-5.418 1.716 0 3.248.791 4.249 2.024l4.903-4.87a12.385 12.385 0 00-9.151-4.024c-6.824 0-12.766 4.822-12.766 12.288 0 7.465 5.942 12.288 12.765 12.288 3.623 0 6.887-1.554 9.152-4.025l-4.903-4.87z" fill="#EC111A"/></svg>