<svg width="30" height="30" viewBox="0 0 30 30" fill="none" xmlns="http://www.w3.org/2000/svg">
<path fill-rule="evenodd" clip-rule="evenodd" d="M27.2221 15.0002C27.2221 21.7501 21.7501 27.2221 15.0002 27.2221C8.25025 27.2221 2.77832 21.7501 2.77832 15.0002C2.77832 8.25025 8.25025 2.77832 15.0002 2.77832C18.2416 2.77832 21.3503 4.06598 23.6424 6.358C25.9344 8.65006 27.2221 11.7588 27.2221 15.0002Z" fill="#009DD6"/>
<path fill-rule="evenodd" clip-rule="evenodd" d="M15 12.9995C15.5178 12.9995 15.9375 13.4193 15.9375 13.937V21.3764C15.9375 21.8942 15.5178 22.3139 15 22.3139C14.4822 22.3139 14.0625 21.8942 14.0625 21.3764V13.937C14.0625 13.4193 14.4822 12.9995 15 12.9995Z" fill="white"/>
<path d="M15.0003 11.2805C15.734 11.2805 16.3288 10.6857 16.3288 9.95204C16.3288 9.21835 15.734 8.62354 15.0003 8.62354C14.2666 8.62354 13.6719 9.21835 13.6719 9.95204C13.6719 10.6857 14.2666 11.2805 15.0003 11.2805Z" fill="white"/>
</svg>
