<svg width="49" height="48" viewBox="0 0 49 48" fill="none" xmlns="http://www.w3.org/2000/svg">
<path fill-rule="evenodd" clip-rule="evenodd" d="M44.5 24C44.5 35.0457 35.5457 44 24.5 44C13.4543 44 4.5 35.0457 4.5 24C4.5 12.9543 13.4543 4 24.5 4C29.8043 4 34.8915 6.10714 38.6422 9.85786C42.3929 13.6085 44.5 18.6957 44.5 24Z" fill="#138468"/>
<path fill-rule="evenodd" clip-rule="evenodd" d="M35.1399 17.3255C35.6093 17.7696 35.6214 18.5014 35.1667 18.9599L28.4131 25.7711L21.8438 32.6336C21.6276 32.8595 21.3278 32.9913 21.0114 32.9996C20.6949 33.0079 20.3883 32.892 20.1601 32.6778L13.2902 26.2329L12.874 25.8517C12.3972 25.4152 12.3731 24.6838 12.82 24.2181C13.2669 23.7524 14.0157 23.7288 14.4924 24.1654L14.9139 24.5513L14.9242 24.561L20.9343 30.1993L26.6918 24.1849L26.7061 24.1702L33.4669 17.3517C33.9216 16.8932 34.6706 16.8815 35.1399 17.3255Z" fill="white"/>
</svg>
