<svg width="30" height="30" viewBox="0 0 30 30" fill="none" xmlns="http://www.w3.org/2000/svg">
<path fill-rule="evenodd" clip-rule="evenodd" d="M17.333 2.70947C16.9878 2.70947 16.708 2.98929 16.708 3.33447C16.708 3.67965 16.9878 3.95947 17.333 3.95947C20.2202 3.95947 22.3806 4.97899 23.823 6.54522C25.2729 8.11959 26.0404 10.2938 26.0404 12.6669C26.0404 13.0121 26.3203 13.2919 26.6654 13.2919C27.0106 13.2919 27.2904 13.0121 27.2904 12.6669C27.2904 10.0297 26.4364 7.53765 24.7425 5.6984C23.0411 3.851 20.5353 2.70947 17.333 2.70947ZM17.333 8.2214C16.9878 8.2214 16.708 8.50122 16.708 8.8464C16.708 9.19159 16.9878 9.4714 17.333 9.4714C18.6502 9.4714 19.5268 9.85472 20.079 10.4403C20.6373 11.0323 20.9484 11.9203 20.9484 13.0927C20.9484 13.4378 21.2283 13.7177 21.5734 13.7177C21.9186 13.7177 22.1984 13.4378 22.1984 13.0927C22.1984 11.7102 21.8301 10.4752 20.9884 9.58272C20.1408 8.68384 18.8972 8.2214 17.333 8.2214Z" fill="#FFD42F"/>
<path fill-rule="evenodd" clip-rule="evenodd" d="M9.61588 12.6671C11.1913 16.0019 13.8697 18.6907 17.1985 20.2788L18.6567 18.6807C19.0849 18.2101 19.7349 18.0091 20.354 18.1557L25.3002 19.3222C26.1054 19.5038 26.6743 20.2234 26.6651 21.0487V25.4C26.6619 26.0977 26.0971 26.6626 25.3994 26.6657C13.4888 26.6657 3.33398 16.5109 3.33398 4.60035C3.33718 3.90263 3.90199 3.33783 4.5997 3.33463H8.85176C9.71676 3.32303 10.4604 3.94521 10.6016 4.79866L11.3949 9.55818C11.4766 10.0522 11.3429 10.5576 11.0274 10.9464L9.61588 12.6671Z" fill="#7849B8"/>
</svg>
