<svg width="49" height="48" viewBox="0 0 49 48" fill="none" xmlns="http://www.w3.org/2000/svg">
<path fill-rule="evenodd" clip-rule="evenodd" d="M24.4992 44.7796C27.992 44.7796 30.8235 41.9481 30.8235 38.4552C30.8235 34.9624 27.992 32.1309 24.4992 32.1309C21.0063 32.1309 18.1748 34.9624 18.1748 38.4552C18.1748 41.9481 21.0063 44.7796 24.4992 44.7796Z" fill="#EC111A"/>
<path fill-rule="evenodd" clip-rule="evenodd" d="M24.4997 10.4476C26.4956 10.4476 28.1136 8.82955 28.1136 6.83365C28.1136 4.83774 26.4956 3.21973 24.4997 3.21973C22.5037 3.21973 20.8857 4.83774 20.8857 6.83365C20.8857 8.82955 22.5037 10.4476 24.4997 10.4476Z" fill="#FF969C"/>
<path fill-rule="evenodd" clip-rule="evenodd" d="M36.244 17.6758L36.3294 25.9806C36.6926 30.0925 38.1489 32.5812 39.2945 33.9384H39.8584C41.3553 33.9384 42.5688 35.1519 42.5688 36.6488C42.5688 38.1457 41.3553 39.3592 39.8584 39.3592H9.14012C7.64319 39.3592 6.42969 38.1457 6.42969 36.6488C6.42969 35.1519 7.64319 33.9384 9.14012 33.9384H9.83325C10.9936 32.6397 12.4296 30.2766 12.8398 26.306L12.7636 18.6458C12.7329 18.3263 12.7172 18.0027 12.7172 17.6758C12.7172 11.688 17.9757 6.83398 24.4624 6.83398C30.9491 6.83398 36.244 11.688 36.244 17.6758Z" fill="#FFD42F"/>
</svg>
