<svg width="57" height="56" viewBox="0 0 57 56" fill="none" xmlns="http://www.w3.org/2000/svg">
<path fill-rule="evenodd" clip-rule="evenodd" d="M22.434 20.7634C22.434 12.3889 29.2228 5.60007 37.5973 5.60007C45.9718 5.60007 52.7605 12.3889 52.7605 20.7634C52.7605 25.8035 50.3015 30.2692 46.5178 33.0265H48.2555C48.5563 33.0265 48.8446 33.1478 49.0546 33.3631C52.4782 30.2481 54.6272 25.7567 54.6272 20.7634C54.6272 11.358 47.0026 3.7334 37.5973 3.7334C28.1919 3.7334 20.5674 11.358 20.5674 20.7634C20.5674 22.572 20.8496 24.3153 21.3722 25.9513C22.2091 26.2305 23.0121 26.5841 23.7734 27.0038C22.9128 25.1009 22.434 22.9885 22.434 20.7634Z" fill="#138468"/>
<path d="M37.667 10.415V12.2892" stroke="#138468" stroke-width="1.2" stroke-linecap="round" stroke-linejoin="round"/>
<path d="M37.667 29.1104V30.9845" stroke="#138468" stroke-width="1.2" stroke-linecap="round" stroke-linejoin="round"/>
<path d="M32.4219 24.5917C32.4219 26.7418 34.7213 28.4894 37.5843 28.4894C40.4471 28.4894 42.7467 26.7418 42.7467 24.5917C42.7467 22.4416 40.4471 20.6941 37.5843 20.6941C34.7213 20.6941 32.4219 18.9579 32.4219 16.8078C32.4219 14.6578 34.7213 12.9102 37.5843 12.9102C40.4471 12.9102 42.7467 14.6578 42.7467 16.8078" stroke="#138468" stroke-width="1.2" stroke-linecap="round" stroke-linejoin="round"/>
<path fill-rule="evenodd" clip-rule="evenodd" d="M29.6567 46.4306C27.235 51.077 22.3736 54.2496 16.7713 54.2496C8.7514 54.2496 2.25 47.7483 2.25 39.7283C2.25 31.7085 8.7514 25.207 16.7713 25.207C22.3736 25.207 27.235 28.3796 29.6567 33.0262H48.2552C48.5564 33.0262 48.8446 33.1477 49.0548 33.3631L53.9165 38.3456C54.3676 38.8079 54.3337 39.5552 53.8428 39.9749L47.0396 45.7884C46.6107 46.1551 45.9757 46.144 45.5596 45.7629L43.8793 44.2243C43.4525 43.8333 42.7974 43.8333 42.3706 44.2243L40.7159 45.7394C40.2891 46.1305 39.6342 46.1305 39.207 45.7394L37.5526 44.2243C37.1257 43.8333 36.4707 43.8333 36.0437 44.2243L33.955 46.1372C33.7491 46.3259 33.48 46.4306 33.2006 46.4306H29.6567Z" stroke="#FB6330" stroke-width="1.2"/>
<path d="M14.7329 39.6663C14.7329 41.0839 13.5838 42.2329 12.1663 42.2329C10.7487 42.2329 9.59961 41.0839 9.59961 39.6663C9.59961 38.2487 10.7487 37.0996 12.1663 37.0996C13.5838 37.0996 14.7329 38.2487 14.7329 39.6663Z" stroke="#FB6330" stroke-width="1.2"/>
</svg>
