<svg width="129" height="36" viewBox="0 0 129 36" fill="none" xmlns="http://www.w3.org/2000/svg">
<path fill-rule="evenodd" clip-rule="evenodd" d="M60.8028 28.7974C57.7943 28.7974 55.3461 26.3679 55.3461 23.3802C55.3461 20.393 57.7943 17.9631 60.8028 17.9631C63.8114 17.9631 66.2585 20.393 66.2585 23.3802C66.2585 26.3679 63.8114 28.7974 60.8028 28.7974ZM60.8028 11.0928C53.9791 11.0928 48.4268 16.6048 48.4268 23.3802C48.4268 30.1561 53.9791 35.6687 60.8028 35.6687C67.6266 35.6687 73.1778 30.1561 73.1778 23.3802C73.1778 16.6048 67.6266 11.0928 60.8028 11.0928Z" fill="#EC111A"/>
<path fill-rule="evenodd" clip-rule="evenodd" d="M88.944 11.677H85.566V4.42383H78.1679V11.677H74.79V18.3252H78.1679V35.0841H85.566V18.3252H88.944V11.677Z" fill="#EC111A"/>
<path fill-rule="evenodd" clip-rule="evenodd" d="M92.3369 35.0839H99.7335V11.6768H92.3369V35.0839Z" fill="#EC111A"/>
<path fill-rule="evenodd" clip-rule="evenodd" d="M96.5055 0.332031C94.2339 0.332031 92.3848 2.16803 92.3848 4.42355C92.3848 6.67943 94.2339 8.51543 96.5055 8.51543C98.7782 8.51543 100.627 6.67943 100.627 4.42355C100.627 2.16803 98.7782 0.332031 96.5055 0.332031Z" fill="#EC111A"/>
<path fill-rule="evenodd" clip-rule="evenodd" d="M115.707 28.9086C112.637 28.9086 110.139 26.4289 110.139 23.3803C110.139 20.3313 112.637 17.8509 115.707 17.8509C118.778 17.8509 121.276 20.3313 121.276 23.3803C121.276 26.4289 118.778 28.9086 115.707 28.9086ZM128.648 35.0842V11.676H121.437V14.1375L120.769 13.5444C118.961 11.9397 116.939 11.0918 114.558 11.0918C108.194 11.0918 102.818 16.7185 102.818 23.3803C102.818 30.0417 108.194 35.6687 114.558 35.6687C116.939 35.6687 118.961 34.8208 120.769 33.2157L121.437 32.623V35.0842H128.648Z" fill="#EC111A"/>
<path fill-rule="evenodd" clip-rule="evenodd" d="M22.9593 28.7845C23.4909 27.5106 23.7185 26.2203 23.7185 24.4716C23.7185 22.1095 22.9729 19.998 21.6178 18.5259C20.0383 16.8083 17.3392 15.3822 13.594 14.2858C12.773 14.0459 12.0856 13.79 11.4911 13.5016C10.8299 13.1822 10.3431 12.7937 9.9242 12.3435C9.44461 11.8289 9.25041 11.2183 9.25041 10.4466C9.25041 9.35948 9.83697 8.62273 10.79 8.02712C11.9861 7.27932 14.2864 7.20518 16.6381 8.07096C17.4565 8.37215 18.1892 8.70542 19.0242 9.19195L22.1684 2.98035C21.0003 2.28744 19.3386 1.38494 17.6597 0.961858C15.9582 0.532348 14.3618 0.332031 12.6362 0.332031C10.9063 0.332031 9.32651 0.591518 7.94159 1.10265C6.70995 1.55496 5.43451 2.38083 4.34897 3.42518C3.36502 4.3733 2.47261 5.72419 1.95964 6.97706C1.43446 8.25809 1.1681 9.71341 1.1681 11.3045C1.1681 12.9652 1.95964 15.6523 3.95482 17.509C6.10902 19.515 8.5522 20.2265 9.53579 20.6039C10.5093 20.9775 11.6002 21.2986 12.292 21.5724C13.0221 21.8629 13.846 22.2457 14.317 22.5964C14.8238 22.9728 15.1659 23.3139 15.396 23.7876C15.6193 24.2535 15.6767 24.6744 15.6261 25.28C15.5619 26.0517 15.2076 26.7068 14.5736 27.2989C13.9397 27.8909 12.7956 28.2302 11.1731 28.2302C9.81184 28.2302 8.42836 27.851 7.0481 27.2443C5.83333 26.7111 4.99405 26.241 3.69707 25.4803L0 31.8766C2.58031 34.1513 6.76307 35.6687 10.4881 35.6687C12.3918 35.6687 14.3701 35.3543 16.0616 34.7847C17.6569 34.2476 19.236 33.3711 20.2849 32.4408C21.4099 31.4421 22.4348 30.0406 22.9593 28.7845Z" fill="#EC111A"/>
<path fill-rule="evenodd" clip-rule="evenodd" d="M43.2166 26.7742C42.2158 28.0068 40.6837 28.7974 38.9685 28.7974C35.96 28.7974 33.5118 26.3679 33.5118 23.3806C33.5118 20.393 35.96 17.9635 38.9685 17.9635C40.6837 17.9635 42.2158 18.7541 43.2166 19.9866L48.1195 15.117C45.8544 12.6462 42.591 11.0928 38.9685 11.0928C32.1448 11.0928 26.2031 15.9147 26.2031 23.3806C26.2031 30.8462 32.1448 35.6691 38.9685 35.6691C42.591 35.6691 45.8548 34.1154 48.1199 31.6439L43.2166 26.7742Z" fill="#EC111A"/>
</svg>
