<svg xmlns="http://www.w3.org/2000/svg" xmlns:xlink="http://www.w3.org/1999/xlink" viewBox="0 0 303.5 85.13"><defs><style>.cls-1{fill:none;}.cls-2{clip-path:url(#clip-path);}.cls-3{fill:url(#Degradado_sin_nombre);}.cls-4{clip-path:url(#clip-path-2);}.cls-5{fill:url(#Degradado_sin_nombre_2);}.cls-6{clip-path:url(#clip-path-3);}.cls-7{fill:url(#Degradado_sin_nombre_6);}.cls-8{clip-path:url(#clip-path-4);}.cls-9{fill:url(#Degradado_sin_nombre_6-2);}.cls-10{clip-path:url(#clip-path-5);}.cls-11{fill:url(#Degradado_sin_nombre_6-3);}.cls-12{clip-path:url(#clip-path-6);}.cls-13{fill:url(#Degradado_sin_nombre_6-4);}.cls-14{fill:#fff;}.cls-15{fill:#030508;}</style><clipPath id="clip-path"><rect class="cls-1" x="0.39" width="53.31" height="53.31"/></clipPath><linearGradient id="Degradado_sin_nombre" x1="-15.5" y1="116.34" x2="-14.5" y2="116.34" gradientTransform="matrix(0, 56.27, 56.27, 0, -6519.75, 870.96)" gradientUnits="userSpaceOnUse"><stop offset="0" stop-color="#43774f"/><stop offset="0.6" stop-color="#9fc8ad"/><stop offset="1" stop-color="#549462"/></linearGradient><clipPath id="clip-path-2"><path class="cls-1" d="M4.55.94c-1,0-1.71.87-1.87,2.09,0,0-1.33,7-1.33,21.86A200.46,200.46,0,0,0,2.68,49.48c.13,1.18.84,2.1,1.87,2.1H50.7a1.94,1.94,0,0,0,1.87-2.1S52.05,38.09,52.05,27,52.57,3,52.57,3A2,2,0,0,0,50.7.94Z"/></clipPath><linearGradient id="Degradado_sin_nombre_2" x1="-15.5" y1="116.34" x2="-14.5" y2="116.34" gradientTransform="matrix(0, 63.24, 63.24, 0, -7329.83, 966.95)" gradientUnits="userSpaceOnUse"><stop offset="0" stop-color="#549462"/><stop offset="0.3" stop-color="#9fc8ad"/><stop offset="0.55" stop-color="#549462"/><stop offset="0.84" stop-color="#43774f"/><stop offset="0.89" stop-color="#488057"/><stop offset="0.98" stop-color="#56986e"/><stop offset="1" stop-color="#599d73"/></linearGradient><clipPath id="clip-path-3"><path class="cls-1" d="M30.47,6.29c1.45.61,7.3,3.77,8,4.78a49.21,49.21,0,0,0-11.83,3.4l-.18.37A81.37,81.37,0,0,1,38,13.51a36.22,36.22,0,0,1-3.93,4.72l-.17.4c3.57-2.15,4.58-2.3,7.88-4.23,1.24,1.84,1.54,6.08,1.59,9.45,1.07-2.14,2.37-10.18,1.83-11.63,2.19-1.5,2.49-2.71,2.49-2.71a20.31,20.31,0,0,0-4.2.55A38.28,38.28,0,0,0,30.64,5.92Z"/></clipPath><linearGradient id="Degradado_sin_nombre_6" x1="-15.5" y1="116.34" x2="-14.5" y2="116.34" gradientTransform="matrix(0, -40.92, -40.92, 0, 4797.86, -587.81)" gradientUnits="userSpaceOnUse"><stop offset="0" stop-color="#5ea77e"/><stop offset="1" stop-color="#549462"/></linearGradient><clipPath id="clip-path-4"><path class="cls-1" d="M8.63,31.27a22.3,22.3,0,0,0,0,6.73,22.92,22.92,0,0,0-2.91.72l-.17.36a36.38,36.38,0,0,0,4.1,2.25,13.92,13.92,0,0,0,3.12,4.42l.17-.37a8,8,0,0,1-.46-3,19.54,19.54,0,0,0,5.24.84l.17-.38A14,14,0,0,1,13,40.29a14,14,0,0,1,1.79-3.44l.17-.37c-1.5.22-2.87.78-4.17,1-1-1.8-1.42-4.27-1.94-6.62Z"/></clipPath><linearGradient id="Degradado_sin_nombre_6-2" x1="-15.5" y1="116.34" x2="-14.5" y2="116.34" gradientTransform="matrix(0, -40.93, -40.93, 0, 4773.88, -587.99)" xlink:href="#Degradado_sin_nombre_6"/><clipPath id="clip-path-5"><path class="cls-1" d="M17.56,19a28.79,28.79,0,0,0-3-.05,29.24,29.24,0,0,0-5.07.55l-.16.37c1.81.08,4.3.56,5.25,1.52A28.45,28.45,0,0,0,9.1,29.36s5-4.65,7.1-5.8c0,0,1.12,3.74,1.9,5.61l.17-.37a31.36,31.36,0,0,1,1.67-6.47A6.23,6.23,0,0,1,21.85,22a29.17,29.17,0,0,1,8.09.52l.17-.36a29,29,0,0,0-8.95-2.79h.13a19.72,19.72,0,0,1,1.27-2.91,14.75,14.75,0,0,0-5,2.6"/></clipPath><linearGradient id="Degradado_sin_nombre_6-3" x1="-15.5" y1="116.34" x2="-14.5" y2="116.34" gradientTransform="matrix(0, -40.91, -40.91, 0, 4778.89, -587.62)" xlink:href="#Degradado_sin_nombre_6"/><clipPath id="clip-path-6"><path class="cls-1" d="M27.93,42c-.06-.73-.11-1.35-.15-2.16C26.92,41,26.19,41.92,25.24,43a11.84,11.84,0,0,1-3.2.26H20.86l-.17.37a11.24,11.24,0,0,0,2.95,1,23,23,0,0,1-2.71,1.85l-.17.37a21.32,21.32,0,0,0,5.49-2.07,9.91,9.91,0,0,0,2.22-.13l.18-.37c-.11-.38-.44-.61-.54-1.13A38.64,38.64,0,0,0,32,39.6l.18-.38A32.77,32.77,0,0,1,27.93,42"/></clipPath><linearGradient id="Degradado_sin_nombre_6-4" x1="-15.5" y1="116.34" x2="-14.5" y2="116.34" gradientTransform="matrix(0, -40.92, -40.92, 0, 4787.24, -587.81)" xlink:href="#Degradado_sin_nombre_6"/></defs><title>Recurso 1</title><g id="Capa_2" data-name="Capa 2"><g id="Capa_1-2" data-name="Capa 1"><g class="cls-2"><rect class="cls-3" x="0.39" width="53.31" height="53.31"/></g><g class="cls-4"><rect class="cls-5" x="1.35" y="0.94" width="51.24" height="50.64"/></g><g class="cls-6"><rect class="cls-7" x="26.48" y="5.92" width="21.21" height="17.93"/></g><g class="cls-8"><rect class="cls-9" x="5.53" y="30.89" width="12.33" height="14.86"/></g><g class="cls-10"><rect class="cls-11" x="9.1" y="16.44" width="21.01" height="12.91"/></g><g class="cls-12"><rect class="cls-13" x="20.69" y="39.22" width="11.52" height="7.64"/></g><path class="cls-14" d="M42,14c-3.29,1.93-4.3,2.1-7.88,4.24a36.41,36.41,0,0,0,4.1-5.12,81.4,81.4,0,0,0-11.52,1.33,45.84,45.84,0,0,1,12-3.78c-.73-1-6.58-4.16-8-4.77,4.63.36,10.29,2.09,13,3.76a22.12,22.12,0,0,1,4.21-.53,5.59,5.59,0,0,1-2.51,2.7c.55,1.46-.76,9.49-1.83,11.62,0-3.36-.34-7.6-1.59-9.45"/><path class="cls-14" d="M17.87,42.84a12.88,12.88,0,0,1-4.75-2.92,14.73,14.73,0,0,1,1.79-3.44c-1.54.23-2.67.4-4,.65A20.54,20.54,0,0,1,8.8,30.89a22.7,22.7,0,0,0,0,6.74A20.11,20.11,0,0,0,5.7,38.71,37.27,37.27,0,0,0,9.8,41a13.87,13.87,0,0,0,3.12,4.41A8.09,8.09,0,0,1,12.64,42a19.41,19.41,0,0,0,5.23.83"/><path class="cls-14" d="M22.79,16.12h0A11.07,11.07,0,0,0,21.33,19a24.28,24.28,0,0,1,8.78,3.16A28.38,28.38,0,0,0,22,21.62a6.51,6.51,0,0,0-1.91.33,34.16,34.16,0,0,0-1.83,6.85c-.78-1.87-1.9-5.62-1.9-5.62C14.23,24.33,9.29,29,9.29,29a28.22,28.22,0,0,1,5.47-7.92c-.95-1-3.44-1.44-5.26-1.52a20.11,20.11,0,0,1,5.24-.92,25.64,25.64,0,0,1,3,.05,15.05,15.05,0,0,1,5.06-2.55"/><path class="cls-14" d="M28,39.47a39.07,39.07,0,0,1-2.56,3.15,15.64,15.64,0,0,1-4.54.63,11,11,0,0,0,2.95,1,20.1,20.1,0,0,1-2.88,2.22,21,21,0,0,0,5.49-2.06,10.57,10.57,0,0,0,2.23-.14,12.38,12.38,0,0,1-.37-1.51,36.64,36.64,0,0,0,3.93-3.56,26.34,26.34,0,0,1-4.11,2.4C28,40.9,28,40.28,28,39.47"/><path class="cls-15" d="M6.36,71c-.13-1.14-.42-2.26-2.07-2.26-1,0-1.9.5-1.9,1.64,0,2.7,6.1,2.68,6.1,6.55,0,2.47-1.71,3.71-4.2,3.71A5.69,5.69,0,0,1,0,78.75l1-1.56a4.57,4.57,0,0,0,3.37,1.56c1.17,0,2-.46,2-1.58C6.38,74.76.3,74.64.3,70.54c0-2.51,1.88-3.69,4-3.69a3.73,3.73,0,0,1,4,3.84Z"/><path class="cls-15" d="M12.44,75.92c.09,2.33,1,3,2.47,3a4.51,4.51,0,0,0,2.64-1l.32,1.62a5.93,5.93,0,0,1-3.38,1.1c-2.51,0-4.22-1.5-4.22-5.29s1.5-5.3,4.09-5.3S18,71.77,18,74.3v1.62ZM16,74.3c0-1.71-.5-2.51-1.69-2.51s-1.77.74-1.86,2.51Z"/><path class="cls-15" d="M28.14,72.17l-1.39-.07a2.8,2.8,0,0,1,.5,1.84,3.57,3.57,0,0,1-3.69,3.84,3,3,0,0,1-1-.12c-.38.27-.63.44-.63.78,0,1.07,6.12-.19,6.12,3.44,0,2.19-2.3,3.25-4.79,3.25s-4.16-.91-4.16-2.53a2.76,2.76,0,0,1,1.73-2.39A1.48,1.48,0,0,1,20,78.79,2.28,2.28,0,0,1,21.21,77a3.71,3.71,0,0,1-1.37-3.1,3.56,3.56,0,0,1,3.74-3.84,4.31,4.31,0,0,1,1.45.25h3.11ZM21.08,82.38c0,.91,1.08,1.14,2.26,1.14S26,83,26,82.13c0-1.24-1.7-1.22-3.26-1.43-.82.38-1.67,1-1.67,1.68m2.48-10.64c-1.1,0-1.78.62-1.78,2.18s.68,2.19,1.78,2.19,1.79-.63,1.79-2.19-.68-2.18-1.79-2.18"/><path class="cls-15" d="M31.58,70.31v6.92a1.52,1.52,0,0,0,1.71,1.69A1.52,1.52,0,0,0,35,77.23V70.31h2.07v6.86c0,2.36-1.6,3.48-3.78,3.48s-3.78-1.12-3.78-3.48V70.31Z"/><path class="cls-15" d="M41.66,70.31v1a3.41,3.41,0,0,1,2.56-1.24c1.5,0,1.79,1.37,1.79,2.85l-1.77.21c0-.61-.07-1-.64-1a2.8,2.8,0,0,0-1.73,1.06V80.4H39.8V70.31Z"/><path class="cls-15" d="M55.09,75.4c0,3.5-1.45,5.25-4.16,5.25s-4.18-1.52-4.18-5.28,1.46-5.31,4.18-5.31,4.16,1.53,4.16,5.34m-6.21,0c0,2.73.68,3.55,2,3.55s2-.82,2-3.52-.66-3.61-2-3.61-2,.8-2,3.58"/><path class="cls-15" d="M61.75,73.35c-.07-.89-.47-1.56-1.56-1.56-.79,0-1.4.35-1.4,1.11,0,1.91,4.71,1.74,4.71,4.8,0,1.83-1.29,3-3.46,3a5.09,5.09,0,0,1-3.55-1.33l.68-1.52A4.15,4.15,0,0,0,60,78.92c.79,0,1.46-.3,1.46-1.1,0-1.6-4.66-1.58-4.66-4.79,0-1.79,1.28-3,3.39-3,2.33,0,3.3,1.35,3.3,3Z"/><path class="cls-15" d="M73,80.17v4.14L71,84.77V70.31h1.86v.91a4.59,4.59,0,0,1,3-1.16c1.71,0,3.37,1,3.37,5.19,0,3.92-1.79,5.4-4.13,5.4a5,5,0,0,1-2-.48m0-1.82a3.31,3.31,0,0,0,1.79.57C76,78.92,77,78,77,75.25s-.93-3.32-1.9-3.32a3.55,3.55,0,0,0-2,.7Z"/><path class="cls-15" d="M86.06,73.12c0-1-.63-1.33-1.48-1.33a1.5,1.5,0,0,0-1.64,1.56l-1.82-.19c.06-2,1.69-3.1,3.59-3.1,2.09,0,3.42,1.07,3.42,2.87V78.2c0,.47.22.68.55.68a1.7,1.7,0,0,0,1-.4L89.8,80a2.5,2.5,0,0,1-1.75.67,1.53,1.53,0,0,1-1.69-1.41,3.7,3.7,0,0,1-2.9,1.41,2.5,2.5,0,0,1-2.7-2.74c0-2.58,2.47-3.65,5.3-3.63Zm0,2.72c-1.77-.06-3.25.59-3.25,1.88,0,.78.34,1.2,1.14,1.2a3.06,3.06,0,0,0,2.11-1.12Z"/><path class="cls-15" d="M93,70.31v1a3.43,3.43,0,0,1,2.57-1.24c1.5,0,1.78,1.37,1.78,2.85l-1.76.21c0-.61-.08-1-.65-1a2.8,2.8,0,0,0-1.73,1.06V80.4H91.18V70.31Z"/><path class="cls-15" d="M103.62,73.12c0-1-.62-1.33-1.48-1.33a1.5,1.5,0,0,0-1.63,1.56l-1.83-.19c.06-2,1.69-3.1,3.59-3.1,2.09,0,3.42,1.07,3.42,2.87V78.2c0,.47.23.68.55.68a1.68,1.68,0,0,0,1-.4l.13,1.5a2.49,2.49,0,0,1-1.74.67,1.52,1.52,0,0,1-1.69-1.41A3.72,3.72,0,0,1,101,80.65a2.5,2.5,0,0,1-2.7-2.74c0-2.58,2.47-3.65,5.3-3.63Zm0,2.72c-1.76-.06-3.25.59-3.25,1.88,0,.78.35,1.2,1.14,1.2a3.06,3.06,0,0,0,2.11-1.12Z"/><path class="cls-15" d="M115.66,70.31v6.92a1.71,1.71,0,0,0,3.42,0V70.31h2.07v6.86c0,2.36-1.6,3.48-3.78,3.48s-3.78-1.12-3.78-3.48V70.31Z"/><path class="cls-15" d="M125.74,71.22a5.14,5.14,0,0,1,3.14-1.16c1.82,0,3,1,3,3.22V80.4h-2.07V73.69c0-1.23-.42-1.67-1.58-1.67a4.36,4.36,0,0,0-2.24.74V80.4h-2.07V70.31h1.86Z"/><path class="cls-15" d="M141.54,71.22a5,5,0,0,1,3-1.16,2.5,2.5,0,0,1,2.36,1.18,5.85,5.85,0,0,1,3.22-1.18c1.81,0,2.83,1,2.83,3.22V80.4h-2.07V73.64c0-1.26-.49-1.62-1.52-1.62a4.36,4.36,0,0,0-2.09.74,5.27,5.27,0,0,1,.06.82V80.4H145.3V73.92c0-1.42-.26-1.9-1.52-1.9a4,4,0,0,0-2,.74V80.4h-2.07V70.31h1.86Z"/><path class="cls-15" d="M157.57,70.31v6.92a1.71,1.71,0,0,0,3.42,0V70.31h2.07v6.86c0,2.36-1.6,3.48-3.78,3.48s-3.78-1.12-3.78-3.48V70.31Z"/><path class="cls-15" d="M167.65,71.22a5.14,5.14,0,0,1,3.14-1.16c1.82,0,3,1,3,3.22V80.4h-2.07V73.69c0-1.23-.42-1.67-1.58-1.67a4.36,4.36,0,0,0-2.24.74V80.4h-2.07V70.31h1.86Z"/><path class="cls-15" d="M182.18,79.2a3.8,3.8,0,0,1-2.91,1.45c-1.63,0-3.45-1.26-3.45-5.27s1.72-5.32,3.59-5.32a5.41,5.41,0,0,1,2.45.63V66.53l2.07-.38v12c0,.47.22.68.55.68a1.65,1.65,0,0,0,1-.4l.14,1.5a2.52,2.52,0,0,1-1.75.67,1.5,1.5,0,0,1-1.67-1.45m-.32-6.84a4.17,4.17,0,0,0-2-.57c-1,0-1.86.63-1.86,3.5,0,2.47.84,3.46,1.75,3.46a2.89,2.89,0,0,0,2.13-1.14Z"/><path class="cls-15" d="M194.79,75.4c0,3.5-1.45,5.25-4.16,5.25s-4.18-1.52-4.18-5.28,1.46-5.31,4.18-5.31,4.16,1.53,4.16,5.34m-6.21,0c0,2.73.68,3.55,2,3.55s2-.82,2-3.52-.66-3.61-2-3.61-2,.8-2,3.58"/><path class="cls-15" d="M203.64,75.92c.09,2.33,1,3,2.47,3a4.48,4.48,0,0,0,2.63-1l.33,1.62a5.93,5.93,0,0,1-3.38,1.1c-2.51,0-4.22-1.5-4.22-5.29s1.5-5.3,4.08-5.3,3.65,1.71,3.65,4.24v1.62Zm3.57-1.62c0-1.71-.5-2.51-1.7-2.51s-1.76.74-1.86,2.51Z"/><path class="cls-15" d="M213.34,71.22a5.13,5.13,0,0,1,3.13-1.16c1.83,0,3,1,3,3.22V80.4h-2.07V73.69c0-1.23-.42-1.67-1.58-1.67a4.33,4.33,0,0,0-2.24.74V80.4h-2.07V70.31h1.86Z"/><path class="cls-15" d="M228.76,75.92c.09,2.33,1,3,2.47,3a4.51,4.51,0,0,0,2.64-1l.32,1.62a5.93,5.93,0,0,1-3.38,1.1c-2.51,0-4.22-1.5-4.22-5.29s1.5-5.3,4.09-5.3,3.64,1.71,3.64,4.24v1.62Zm3.57-1.62c0-1.71-.5-2.51-1.69-2.51s-1.77.74-1.86,2.51Z"/><polygon class="cls-15" points="237.42 70.31 239.94 78.12 242.35 70.31 244.43 70.31 241.06 80.4 238.65 80.4 235.21 70.31 237.42 70.31"/><path class="cls-15" d="M253.65,75.4c0,3.5-1.44,5.25-4.16,5.25s-4.17-1.52-4.17-5.28,1.46-5.31,4.17-5.31,4.16,1.53,4.16,5.34m-6.21,0c0,2.73.69,3.55,2.05,3.55s2-.82,2-3.52-.67-3.61-2-3.61-2.05.8-2.05,3.58"/><path class="cls-15" d="M258,66.15V78.08a.66.66,0,0,0,.71.76,2.49,2.49,0,0,0,1.23-.4l.21,1.6a4.22,4.22,0,0,1-2.11.61c-1.69,0-2.11-1.24-2.11-2.57V66.53Z"/><path class="cls-15" d="M263.34,70.31v6.92a1.71,1.71,0,0,0,3.42,0V70.31h2.06v6.86c0,2.36-1.59,3.48-3.77,3.48s-3.78-1.12-3.78-3.48V70.31Z"/><path class="cls-15" d="M276.48,73.71c-.06-1-.48-1.92-1.62-1.92s-1.82.73-1.82,3.58.86,3.55,2.36,3.55a4.19,4.19,0,0,0,2.54-.91l.4,1.54a5.66,5.66,0,0,1-3.36,1.1c-2.62,0-4.1-1.65-4.1-5.3s1.27-5.28,4.06-5.28c2.43,0,3.36,1.5,3.4,3.45l-1.86.19"/><path class="cls-15" d="M282.65,69h-2.07V66.72h2.07Zm0,11.44h-2.07V70.31h2.07Z"/><path class="cls-15" d="M293.27,75.4c0,3.5-1.45,5.25-4.16,5.25s-4.18-1.52-4.18-5.28,1.46-5.31,4.18-5.31,4.16,1.53,4.16,5.34m-6.22,0c0,2.73.69,3.55,2.06,3.55s2-.82,2-3.52-.67-3.61-2-3.61-2.06.8-2.06,3.58m5-9.22-2.21,3h-1.76l1.86-3Z"/><path class="cls-15" d="M297.41,71.22a5.08,5.08,0,0,1,3.13-1.16c1.82,0,3,1,3,3.22V80.4h-2.07V73.69c0-1.23-.42-1.67-1.58-1.67a4.36,4.36,0,0,0-2.24.74V80.4h-2.07V70.31h1.87Z"/><path class="cls-15" d="M67,7.36c.14,1.86.23,6.51.23,8.22s0,6.8-.25,9.07l0,.18h8.19c4,0,8.26-1.27,8.26-4.84,0-2.24-1.62-3.9-4.65-4.8,2.22-.6,3.73-2.14,3.73-3.92,0-2.9-3.34-4-6.47-4.08H67Zm6.32,1.8c3.42,0,4.69.71,4.69,2.58a2,2,0,0,1-.46,1.3A4.31,4.31,0,0,1,74,14.15h-.08l-1,2.48h1A5.37,5.37,0,0,1,78.3,18.2a2.4,2.4,0,0,1,.59,1.59c0,2-1.71,3-5.08,3-.57,0-1.48,0-2.07,0-.12-2.58-.12-6.1-.12-7.14,0-1.23,0-4,.13-6.32a9.27,9.27,0,0,1,1.61-.1"/><path class="cls-15" d="M102.3,7.19h-4l.17,4.43c.07,2.21.14,4.47.29,6.66a13.77,13.77,0,0,0-1.68-2.79c0-.07-4.16-6.45-5.6-8.26l0,0H86.84l0,.16c.13,1.86.23,6.51.23,8.22,0,1.56,0,6.81-.26,9.07l0,.19h4.11v-.18c-.24-4.32-.24-8.66-.24-12.86h0a6.07,6.07,0,0,0,1,1.93c.07.11,7.13,10.43,7.49,11.05l0,.07h3.31l0-.19c-.25-2.27-.26-7.51-.26-9.07,0-1.71.1-6.36.23-8.22V7.19Z"/><path class="cls-15" d="M107.08,7.35c.13,1.87.23,6.51.23,8.22,0,1.56,0,6.8-.26,9.07v.18h4.89l0-.18c-.17-1.62-.23-4.72-.25-7.11l.9,0,.69,0c6.46,0,9.59-1.73,9.59-5.31,0-4.09-4.4-5-8.08-5.11h-7.69Zm6,2c2.29,0,3.91.44,4.68,1.39a2.52,2.52,0,0,1,.53,1.61c0,2.55-2.85,3.09-5.25,3.09l-1,0-.39-.06c0-.59,0-1.35,0-2.23,0-1.13,0-2.42.06-3.65a10.2,10.2,0,0,1,1.36-.12"/><path class="cls-15" d="M132.2,7.35c.14,1.87.23,6.51.23,8.22,0,1.56,0,6.8-.26,9.07l0,.18h4.91l0-.18c-.16-1.62-.23-4.72-.25-7.11l.9,0,.69,0c6.45,0,9.6-1.73,9.6-5.31,0-4.09-4.4-5-8.09-5.11h-7.69Zm6,2c2.29,0,3.91.44,4.69,1.39a2.57,2.57,0,0,1,.52,1.61c0,2.55-2.85,3.09-5.25,3.09l-1,0-.38-.06c0-.59,0-1.36,0-2.24,0-1.13,0-2.41.06-3.64a10.36,10.36,0,0,1,1.36-.12"/><path class="cls-15" d="M154.53,7.19h-.09l0,.1c-.91,2.5-6.77,15.33-7.68,17.3l-.12.24h4.2l0-.1c.37-1.2.84-2.57,1.39-4.05l3.47-.05,2.86,0,.63,0c.76,1.9,1.32,3.34,1.57,4.06l0,.09h4.87L157.81,7.19h-3.28Zm1.19,5.2c.39.82,1.4,3.19,2.53,6h-.38l-2.15,0-2.58,0c.91-2.24,1.81-4.26,2.58-6"/><path class="cls-15" d="M167.6,7.35c.12,1.86.23,6.51.23,8.22,0,1.56,0,6.81-.27,9.07l0,.19h4.91l0-.19c-.25-2.27-.26-7.51-.26-9.07,0-1.22.05-4,.14-6.16.4-.05.95-.09,1.32-.1,2.29-.05,3.91.44,4.68,1.39a2.47,2.47,0,0,1,.53,1.6c0,2-1.91,3.06-3.69,3.16a5.18,5.18,0,0,1-1-.05l-.33-.06.21.31c1.72,2.55,4.33,7,5.43,9.1l0,.07h5.25l-.16-.26c-.18-.29-3.62-5.34-5.08-7.5l-.1-.13c2.67-.81,4-2.33,4-4.64,0-4.09-4.4-5-8.09-5.11h-7.69Z"/><path class="cls-15" d="M191.67,7.17H187l0,.17c.13,1.87.23,6.52.23,8.23,0,1.55,0,6.79-.26,9.06l0,.18h4.9l0-.18c-.24-2.27-.26-7.51-.26-9.06,0-1.71.1-6.36.23-8.23V7.17Z"/><path class="cls-15" d="M196.25,7.36c.14,1.86.23,6.51.23,8.22s0,6.8-.26,9.07l0,.18h8.18c4,0,8.27-1.27,8.27-4.84,0-2.24-1.62-3.9-4.65-4.8,2.22-.6,3.73-2.14,3.73-3.92,0-2.9-3.33-4-6.47-4.08h-9Zm6.32,1.8h0c3.42,0,4.69.71,4.69,2.58a2,2,0,0,1-.46,1.3,4.31,4.31,0,0,1-3.57,1.11h-.09l-.93,2.48h.95a5.37,5.37,0,0,1,4.35,1.57,2.45,2.45,0,0,1,.59,1.59c0,2-1.71,3-5.07,3-.58,0-1.5,0-2.08,0-.12-2.58-.12-6.1-.12-7.14,0-1.24,0-4,.14-6.32a9.08,9.08,0,0,1,1.6-.1"/><path class="cls-15" d="M224.7,7.17h-3.3l0,.1c-1,2.66-7.17,16.19-7.68,17.31l-.12.23h4.21l0-.1c.36-1.2.84-2.57,1.39-4.05l3.47-.05,2.86,0h.63c.76,1.91,1.32,3.34,1.56,4.06l0,.09h4.87L224.77,7.17Zm-2,5.2c.4.83,1.39,3.19,2.54,6l-.38,0-2.16,0-2.57-.05c.9-2.24,1.8-4.25,2.57-6"/><path class="cls-15" d="M234,11.75c0,3.1,3.12,4.36,5.87,5.48,2.14.86,4.34,1.76,4.34,3.23a1.61,1.61,0,0,1-.34,1.08c-.51.61-1.56.87-3.22.79a15.06,15.06,0,0,1-5.51-1.56l-.86-.39v3.85l.55.12.34.07a21.68,21.68,0,0,0,5,.72c5.16,0,8.25-2.06,8.25-5.48,0-3.18-3.19-4.45-6-5.57-2.07-.83-4.22-1.69-4.22-3,0-.4,0-1.58,2.66-1.58a13.56,13.56,0,0,1,5,1.24l1,.42V7.26l-1-.18a23.33,23.33,0,0,0-4.39-.52C237,6.56,234,8.65,234,11.75"/><path class="cls-15" d="M79.31,34.05a6.28,6.28,0,0,0-3.26-.92c-4,0-5.34,3.14-5.34,5.83,0,3.73,2.29,5.61,5.37,5.61a6.86,6.86,0,0,0,4.64-2l0,3.23a13.74,13.74,0,0,1-5.35,1c-5.54,0-9-3.45-9-7.84,0-4.62,3.66-8,9.71-8a17.05,17.05,0,0,1,4.12.55Z"/><path class="cls-15" d="M92.69,31.21c.59,1.57,5.61,12.75,6.79,15.28H95.27c-.24-.7-.75-2-1.4-3.6-.87,0-1.77,0-3,0s-2,0-3,0c-.49,1.28-.88,2.46-1.23,3.6H82.94c.87-1.9,6-13,6.81-15.28Zm.37,9.67-2.18-5.17c-.7,1.48-1.46,3.23-2.27,5.17.66,0,1.55,0,2.27,0s1.44,0,2.18,0"/><path class="cls-15" d="M108.8,31.21c3.21,0,7,.9,7,4.43,0,2-1.15,3.32-3.45,4A82.08,82.08,0,0,0,117,46.49h-4.56c-1-1.9-3.27-5.74-4.93-8.23a5.24,5.24,0,0,0,1.18.11c1.33,0,3.2-1,3.2-2.73,0-2.2-2.66-2.6-4-2.6a15.27,15.27,0,0,0-1.66.09c-.09,1.9-.13,4.28-.13,5.35,0,1.35,0,5.87.24,8h-4.25c.21-2.12.26-4.85.26-8,0-2.66,0-5.85-.22-7.27Z"/><path class="cls-15" d="M125.77,31.21c6.44,0,8.9,3.38,8.9,7.62s-2.4,7.66-9.14,7.66h-5.67c.21-2.05.21-4.87.21-8,0-1.48,0-5.3-.21-7.29ZM124,33.13c-.09,1-.11,3.6-.11,5.37,0,2.23,0,4,.09,6a10.44,10.44,0,0,0,1.09.06c3.69,0,5.61-1.16,5.61-5.85,0-4.47-2-5.74-5.7-5.65Z"/><path class="cls-15" d="M142.52,31.21c-.13,1.77-.22,5.78-.22,7.29,0,1.33,0,5.87.22,8h-4.24c.22-2.12.24-6.66.24-8s-.09-5.52-.19-7.29Z"/><path class="cls-15" d="M158.71,31.21v2.21c-1.2-.07-4.19-.16-5.19-.16-.74,0-1.57,0-2.42.07-.07.94-.09,2.12-.09,3.14,0,.5,0,1,0,1.33l5.33-.08v2.37L151,39.88c0,1.94,0,4.95.24,6.61H147c.27-2.12.27-6.66.27-8s-.11-5.52-.25-7.29Z"/></g></g></svg>