<?xml version="1.0" encoding="utf-8"?>
<!-- Generator: Adobe Illustrator 23.0.3, SVG Export Plug-In . SVG Version: 6.00 Build 0)  -->
<svg version="1.1" id="Capa_1" xmlns="http://www.w3.org/2000/svg" xmlns:xlink="http://www.w3.org/1999/xlink" x="0px" y="0px"
	 viewBox="0 0 181.5 111.8" style="enable-background:new 0 0 181.5 111.8;" xml:space="preserve">
<style type="text/css">
	.st0{fill:#302E2B;}
	.st1{fill:#C12A21;}
	.st2{fill:#456091;}
</style>
<g>
	<g>
		<rect x="8.6" y="88.2" class="st0" width="167.8" height="0.6"/>
	</g>
	<g>
		<path class="st0" d="M12,105.7h5.5v2.8H8.6V93.3H12C12,93.3,12,105.7,12,105.7z"/>
		<path class="st0" d="M34.2,93.3h-3.5L25,108.5h2.4h0.2h0.9l1.1-3.4h5.6l1.1,3.4h0.9h0.2h2.4L34.2,93.3z M30.4,102.7l1.4-4.1
			c0.1-0.3,0.2-0.6,0.3-0.9c0.1-0.4,0.2-0.8,0.3-1.2c0.1,0.4,0.2,0.8,0.3,1.1c0.1,0.4,0.2,0.6,0.3,0.9l1.4,4.2H30.4z"/>
		<path class="st0" d="M80.3,93.3h-3.5l-5.7,15.2h2.5h0.2h0.9l1.1-3.4h5.6l0.9,2.6c0,0.1,0.1,0.1,0.1,0.1l0.2,0.6h0.9h0.2h2.4
			L80.3,93.3z M76.6,102.7l1.4-4.1c0.1-0.3,0.2-0.6,0.3-0.9c0.1-0.4,0.2-0.8,0.3-1.2c0.1,0.4,0.2,0.8,0.3,1.1
			c0.1,0.4,0.2,0.6,0.3,0.9l1.4,4.2H76.6z"/>
		<path class="st0" d="M128.3,93.3h-3.5l-5.7,15.2h2.4h0.2h0.9l1.1-3.4h5.6l1.1,3.4h0.9h0.2h2.4L128.3,93.3z M124.6,102.7l1.4-4.1
			c0.1-0.3,0.2-0.6,0.3-0.9c0.1-0.4,0.2-0.8,0.3-1.2c0.1,0.4,0.2,0.8,0.3,1.1c0.1,0.4,0.2,0.6,0.3,0.9l1.4,4.2H124.6z"/>
		<path class="st0" d="M170.8,93.3h-3.5l-5.7,15.2h2.4h0.2h0.9l1.1-3.4h5.6l1.1,3.4h0.9h0.2h2.4L170.8,93.3z M167,102.7l1.4-4.1
			c0.1-0.3,0.2-0.6,0.3-0.9c0.1-0.4,0.2-0.8,0.3-1.2c0.1,0.4,0.2,0.8,0.3,1.1c0.1,0.4,0.2,0.6,0.3,0.9l1.4,4.2H167z"/>
		<path class="st0" d="M61.9,104.3l-0.5,0.4l0,0l-0.1,0.1c-0.2,0.2-0.4,0.3-0.6,0.4s-0.4,0.2-0.6,0.3c-0.2,0.1-0.4,0.1-0.7,0.2
			s-0.5,0.1-0.9,0.1c-0.5,0-1-0.1-1.5-0.3s-0.9-0.5-1.2-0.9c-0.4-0.4-0.6-0.9-0.8-1.5c-0.2-0.6-0.3-1.3-0.3-2.1c0-0.8,0.1-1.4,0.3-2
			s0.5-1.1,0.9-1.5c0.4-0.4,0.8-0.8,1.3-1s1.1-0.3,1.7-0.3c0.4,0,0.6,0.1,0.9,0.1c0.3,0.1,0.5,0.1,0.7,0.2c0.2,0.1,0.4,0.2,0.5,0.3
			c0.2,0.1,0.3,0.2,0.4,0.3c0.1,0,0.1,0.1,0.1,0.1l0,0l0.7,0.6l0.5-0.8l0,0l1.1-1.6c-0.3-0.3-0.6-0.6-1-0.8
			c-0.4-0.3-0.8-0.4-1.2-0.6c-0.4-0.2-0.9-0.3-1.4-0.4s-1-0.2-1.6-0.2c-1.1,0-2.2,0.2-3.1,0.6c-0.9,0.4-1.7,0.9-2.4,1.6
			c-0.7,0.7-1.2,1.5-1.6,2.4c-0.4,1-0.5,2-0.5,3.1s0.2,2.2,0.5,3.1c0.3,1,0.8,1.8,1.4,2.4c0.6,0.7,1.4,1.2,2.3,1.6
			c0.9,0.4,1.9,0.6,3,0.6c1.2,0,2.3-0.2,3.2-0.6c0.9-0.4,1.6-0.9,2.1-1.7l0.1-0.1L61.9,104.3z"/>
		<path class="st0" d="M109,93.3h-0.8h-0.9L107,94l-3.7,7.5c-0.1,0.3-0.3,0.5-0.4,0.9c-0.1,0.3-0.3,0.6-0.4,0.9
			c-0.1-0.3-0.2-0.6-0.4-0.9c-0.1-0.3-0.3-0.5-0.4-0.8L98.1,94l-0.3-0.6h-0.9h-0.8h-1.9v15.2h3v-8.7c0-0.2,0-0.4,0-0.6
			c0-0.2-0.1-0.5-0.1-0.7l3.9,7.8l0,0l0.4,0.7h1h0.2h1l0.4-0.8l0,0l0.7-1.4l0.2-0.4l0,0l3-5.9c-0.1,0.5-0.1,1-0.1,1.4v8.7h3V93.3
			H109z"/>
		<path class="st0" d="M151.2,103.2c-0.2-0.3-0.3-0.5-0.5-0.6c-0.2-0.2-0.4-0.3-0.6-0.4c0.5-0.2,0.9-0.4,1.2-0.7
			c0.4-0.3,0.7-0.6,0.9-1c0.3-0.4,0.4-0.8,0.6-1.2c0.1-0.4,0.2-0.9,0.2-1.4c0-0.6-0.1-1.2-0.3-1.8s-0.5-1-1-1.4
			c-0.5-0.4-1.1-0.7-1.8-0.9c-0.8-0.2-1.7-0.3-2.7-0.3h-4.8v15.2h3.4V103h0.9c0.3,0,0.5,0.1,0.6,0.1c0.2,0.1,0.3,0.2,0.4,0.4
			l1.3,2.3l0,0v0.1l1.1,2c0,0.1,0.1,0.1,0.1,0.1l0.3,0.5h0.8h0.2h2.9L151.2,103.2z M147,100.5h-1.4V96h1.4c0.9,0,1.5,0.2,1.9,0.5
			c0.4,0.4,0.6,0.9,0.6,1.6c0,0.3-0.1,0.6-0.2,0.9c-0.1,0.3-0.3,0.5-0.4,0.8c-0.2,0.2-0.5,0.4-0.8,0.5
			C147.9,100.4,147.5,100.5,147,100.5z"/>
	</g>
	<g>
		<path class="st1" d="M40.9,65.5V52.1c-9.5-1.9-16.5-9.3-16.5-17c0-7.2,6.8-14.8,16.5-16.6V5.2C20.7,7.1,8.6,21.3,8.6,35.3
			C8.6,49.9,21.5,63.5,40.9,65.5z"/>
		<path class="st2" d="M176.4,65.5V52.1c-9.5-1.9-16.5-9.3-16.5-17c0-7.2,6.8-14.8,16.5-16.6V5.2c-20.2,1.9-32.2,16.2-32.2,30.1
			C144.2,49.9,157.1,63.5,176.4,65.5z"/>
		<g>
			<path class="st1" d="M99.8,53.8c1.1-2.2,1.6-4.6,1.6-7.1c0-3.5-1.1-6.5-3.4-9.4c-2.3-2.8-5-4.8-8.3-6.1
				c-3.3-1.2-8.5-2.5-15.6-3.7c-4.2-0.7-7-1.6-8.2-2.6c-1.2-1-1.8-2.2-1.8-3.6c0-3.6,3.2-5.4,9.6-5.4c3.9,0,7,1,9.2,3.1h16.5
				C95.6,9.7,86.8,5,73.2,5C65.6,5,59.5,6.8,55,10.5c-4.5,3.7-6.7,8.2-6.7,13.5c0,5.2,1.9,9.2,5.6,11.9c3.8,2.7,10.1,4.9,18.9,6.4
				c4.8,0.9,7.9,1.7,9.6,2.7c1.7,1,2.5,2.3,2.5,4.1c0,1.7-0.9,3.2-2.8,4.4c-0.1,0.1-0.3,0.2-0.4,0.2c0,0-1.8,1.3-8.1,1.3
				c-6.3,0-8.1-1.3-8.1-1.3c-1.9-0.9-3.4-2.2-4.4-3.8H44.7c0.4,1.4,0.9,2.6,1.5,3.8c0,0,7.1,11.8,27.4,11.8
				C93.8,65.7,99.8,53.8,99.8,53.8z"/>
		</g>
		<polygon class="st2" points="122.3,52.5 122.3,5 106.9,5 106.9,65.6 120.4,65.6 122.3,65.6 144.2,65.6 144.2,52.5 		"/>
	</g>
	<g>
		<g>
			<path class="st0" d="M24.1,80.5c0,0.5-0.1,0.9-0.2,1.3c-0.2,0.4-0.4,0.8-0.6,1c-0.3,0.3-0.6,0.5-1,0.7c-0.4,0.2-0.8,0.3-1.3,0.3
				c-0.5,0-0.9-0.1-1.3-0.3c-0.4-0.2-0.8-0.4-1-0.7c-0.3-0.3-0.5-0.6-0.6-1c-0.2-0.4-0.2-0.8-0.2-1.3s0.1-0.9,0.2-1.3
				c0.2-0.4,0.4-0.8,0.6-1c0.3-0.3,0.6-0.5,1-0.7c0.4-0.2,0.8-0.3,1.3-0.3c0.5,0,0.9,0.1,1.3,0.3c0.4,0.2,0.8,0.4,1,0.7
				c0.3,0.3,0.5,0.6,0.6,1C24,79.6,24.1,80,24.1,80.5z M22.8,80.5c0-0.3-0.1-0.6-0.2-0.9c-0.1-0.3-0.2-0.5-0.4-0.7
				c-0.2-0.2-0.4-0.3-0.6-0.4c-0.3-0.1-0.5-0.2-0.9-0.2c-0.3,0-0.6,0.1-0.9,0.2c-0.3,0.1-0.5,0.3-0.6,0.4c-0.2,0.2-0.3,0.4-0.4,0.7
				c-0.1,0.3-0.2,0.6-0.2,0.9c0,0.3,0.1,0.6,0.2,0.9c0.1,0.3,0.2,0.5,0.4,0.7c0.2,0.2,0.4,0.3,0.6,0.4c0.3,0.1,0.5,0.2,0.9,0.2
				c0.3,0,0.6-0.1,0.9-0.2c0.3-0.1,0.4-0.3,0.6-0.4c0.2-0.2,0.3-0.4,0.4-0.7C22.8,81.2,22.8,80.8,22.8,80.5z"/>
			<path class="st0" d="M29.3,81.2v2.5h-1.2v-6.4h1.9c0.4,0,0.8,0.1,1.1,0.1c0.3,0.1,0.5,0.2,0.8,0.4c0.2,0.2,0.3,0.4,0.4,0.6
				c0.1,0.2,0.2,0.5,0.2,0.8c0,0.2-0.1,0.4-0.1,0.6c-0.1,0.2-0.2,0.4-0.3,0.5c-0.1,0.2-0.3,0.3-0.4,0.4c-0.2,0.1-0.4,0.2-0.6,0.3
				c0.2,0.1,0.3,0.2,0.4,0.4l1.6,2.3h-1.4l-1.5-2.3c-0.1-0.1-0.1-0.1-0.2-0.2c-0.1-0.1-0.2-0.1-0.3-0.1H29.3z M29.3,80.4h0.8
				c0.2,0,0.4-0.1,0.6-0.1c0.2-0.1,0.3-0.1,0.4-0.2s0.2-0.2,0.2-0.3c0.1-0.2,0.1-0.3,0.1-0.4c0-0.3-0.1-0.6-0.3-0.8s-0.5-0.3-1-0.3
				h-0.8V80.4z"/>
			<path class="st0" d="M49.7,77.3v0.9h-2.8V80h2.2V81h-2.2v1.8h2.8v0.9h-4v-6.4L49.7,77.3L49.7,77.3z"/>
			<path class="st0" d="M59.5,80.5c0,0.5-0.1,0.9-0.2,1.3c-0.2,0.4-0.4,0.7-0.6,1c-0.3,0.3-0.6,0.5-1,0.6c-0.4,0.2-0.8,0.2-1.3,0.2
				h-2.4v-6.4h2.4c0.5,0,0.9,0.1,1.3,0.2c0.4,0.2,0.8,0.4,1,0.6c0.3,0.3,0.5,0.6,0.6,1C59.4,79.6,59.5,80,59.5,80.5z M58.3,80.5
				c0-0.3-0.1-0.6-0.2-0.9c-0.1-0.3-0.2-0.5-0.4-0.7c-0.2-0.2-0.4-0.3-0.6-0.4c-0.3-0.1-0.5-0.2-0.9-0.2H55v4.5h1.2
				c0.3,0,0.6-0.1,0.9-0.2c0.3-0.1,0.4-0.3,0.6-0.4c0.2-0.2,0.3-0.4,0.4-0.7C58.2,81.2,58.3,80.8,58.3,80.5z"/>
			<path class="st0" d="M69.6,80.5c0,0.5-0.1,0.9-0.2,1.3c-0.2,0.4-0.4,0.8-0.6,1c-0.3,0.3-0.6,0.5-1,0.7c-0.4,0.2-0.8,0.3-1.3,0.3
				c-0.5,0-0.9-0.1-1.3-0.3c-0.4-0.2-0.8-0.4-1-0.7c-0.3-0.3-0.5-0.6-0.6-1c-0.2-0.4-0.2-0.8-0.2-1.3s0.1-0.9,0.2-1.3s0.4-0.8,0.6-1
				c0.3-0.3,0.6-0.5,1-0.7c0.4-0.2,0.8-0.3,1.3-0.3c0.5,0,0.9,0.1,1.3,0.3c0.4,0.2,0.8,0.4,1,0.7c0.3,0.3,0.5,0.6,0.6,1
				C69.5,79.6,69.6,80,69.6,80.5z M68.4,80.5c0-0.3-0.1-0.6-0.2-0.9c-0.1-0.3-0.2-0.5-0.4-0.7c-0.2-0.2-0.4-0.3-0.6-0.4
				c-0.3-0.1-0.5-0.2-0.9-0.2c-0.3,0-0.6,0.1-0.8,0.2c-0.3,0.1-0.5,0.3-0.6,0.4c-0.2,0.2-0.3,0.4-0.4,0.7c-0.1,0.3-0.2,0.6-0.2,0.9
				c0,0.3,0.1,0.6,0.2,0.9c0.1,0.3,0.2,0.5,0.4,0.7c0.2,0.2,0.4,0.3,0.6,0.4c0.3,0.1,0.5,0.2,0.8,0.2c0.3,0,0.6-0.1,0.9-0.2
				c0.3-0.1,0.4-0.3,0.6-0.4c0.2-0.2,0.3-0.4,0.4-0.7C68.3,81.2,68.4,80.8,68.4,80.5z"/>
			<path class="st0" d="M88.1,83.7h-0.9c-0.1,0-0.3,0-0.3,0l-0.6-1.6h-2.6L83,83.7c0,0-0.2,0-0.3,0h-0.9l2.5-6.4h1.2L88.1,83.7z
				 M83.9,81.3H86l-0.8-2.1c-0.1-0.1-0.1-0.2-0.1-0.3S85,78.6,85,78.4c-0.1,0.2-0.1,0.3-0.1,0.4c-0.1,0.1-0.1,0.2-0.1,0.3L83.9,81.3
				z"/>
			<path class="st0" d="M102.2,80.5c0,0.5-0.1,0.9-0.2,1.3c-0.2,0.4-0.4,0.7-0.6,1c-0.3,0.3-0.6,0.5-1,0.6c-0.4,0.2-0.8,0.2-1.3,0.2
				h-2.4v-6.4H99c0.5,0,0.9,0.1,1.3,0.2c0.4,0.2,0.8,0.4,1,0.6c0.3,0.3,0.5,0.6,0.6,1C102.1,79.6,102.2,80,102.2,80.5z M101,80.5
				c0-0.3-0.1-0.6-0.2-0.9c-0.1-0.3-0.2-0.5-0.4-0.7s-0.4-0.3-0.6-0.4c-0.3-0.1-0.5-0.2-0.9-0.2h-1.2v4.5h1.2c0.3,0,0.6-0.1,0.9-0.2
				c0.3-0.1,0.4-0.3,0.6-0.4c0.2-0.2,0.3-0.4,0.4-0.7C100.9,81.2,101,80.8,101,80.5z"/>
			<path class="st0" d="M110.2,77.3v0.9h-2.8V80h2.2V81h-2.2v1.8h2.8v0.9h-4v-6.4L110.2,77.3L110.2,77.3z"/>
			<path class="st0" d="M130.9,77.3v0.9h-2.8V80h2.2V81h-2.2v1.8h2.8v0.9h-4v-6.4L130.9,77.3L130.9,77.3z"/>
			<path class="st0" d="M147,82.7c0.2,0,0.4-0.1,0.6-0.1c0.2-0.1,0.3-0.2,0.4-0.3c0.1-0.2,0.2-0.3,0.3-0.5c0.1-0.2,0.1-0.4,0.1-0.6
				v-3.8h1.2v3.8c0,0.4-0.1,0.7-0.2,1c-0.1,0.3-0.3,0.6-0.5,0.8c-0.2,0.2-0.5,0.4-0.8,0.5c-0.3,0.1-0.7,0.2-1.1,0.2
				c-0.4,0-0.8-0.1-1.1-0.2c-0.3-0.1-0.6-0.3-0.8-0.5c-0.2-0.2-0.4-0.5-0.5-0.8c-0.1-0.3-0.2-0.6-0.2-1v-3.8h1.2v3.8
				c0,0.3,0.1,0.5,0.1,0.6c0.1,0.2,0.2,0.4,0.3,0.5c0.1,0.2,0.3,0.3,0.4,0.3C146.6,82.7,146.8,82.7,147,82.7z"/>
			<path class="st0" d="M168.7,80.5c0,0.5-0.1,0.9-0.2,1.3c-0.2,0.4-0.4,0.8-0.6,1c-0.3,0.3-0.6,0.5-1,0.7c-0.4,0.2-0.8,0.3-1.3,0.3
				c-0.5,0-0.9-0.1-1.3-0.3c-0.4-0.2-0.8-0.4-1-0.7c-0.3-0.3-0.5-0.6-0.6-1c-0.2-0.4-0.2-0.8-0.2-1.3s0.1-0.9,0.2-1.3s0.4-0.8,0.6-1
				c0.3-0.3,0.6-0.5,1-0.7c0.4-0.2,0.8-0.3,1.3-0.3c0.5,0,0.9,0.1,1.3,0.3c0.4,0.2,0.8,0.4,1,0.7c0.3,0.3,0.5,0.6,0.6,1
				C168.6,79.6,168.7,80,168.7,80.5z M167.4,80.5c0-0.3-0.1-0.6-0.2-0.9c-0.1-0.3-0.2-0.5-0.4-0.7c-0.2-0.2-0.4-0.3-0.6-0.4
				c-0.3-0.1-0.5-0.2-0.9-0.2c-0.3,0-0.6,0.1-0.9,0.2c-0.3,0.1-0.5,0.3-0.6,0.4c-0.2,0.2-0.3,0.4-0.4,0.7c-0.1,0.3-0.2,0.6-0.2,0.9
				c0,0.3,0.1,0.6,0.2,0.9c0.1,0.3,0.2,0.5,0.4,0.7c0.2,0.2,0.4,0.3,0.6,0.4c0.3,0.1,0.5,0.2,0.9,0.2c0.3,0,0.6-0.1,0.9-0.2
				c0.3-0.1,0.4-0.3,0.6-0.4c0.2-0.2,0.3-0.4,0.4-0.7C167.4,81.2,167.4,80.8,167.4,80.5z"/>
		</g>
		<path class="st0" d="M13.1,82.2c-0.1,0.1-0.2,0.2-0.3,0.2c-0.1,0.1-0.2,0.1-0.3,0.2c-0.1,0.1-0.2,0.1-0.4,0.1c-0.1,0-0.3,0-0.4,0
			c-0.3,0-0.5-0.1-0.8-0.2c-0.2-0.1-0.4-0.3-0.6-0.4c-0.2-0.2-0.3-0.4-0.4-0.7c-0.1-0.3-0.2-0.6-0.2-1c0-0.3,0.1-0.6,0.2-0.9
			c0.1-0.3,0.2-0.5,0.4-0.7c0.2-0.2,0.4-0.3,0.6-0.4c0.3-0.1,0.5-0.2,0.8-0.2c0.3,0,0.5,0,0.6,0.1c0.2,0.1,0.3,0.1,0.4,0.2
			c0.1,0.1,0.2,0.1,0.3,0.2l0.3,0.2l0.6-0.8c-0.3-0.3-0.5-0.4-0.9-0.6c-0.4-0.2-0.8-0.2-1.2-0.2s-0.9,0.1-1.4,0.2
			c-0.4,0.2-0.8,0.4-1,0.6c-0.3,0.3-0.5,0.6-0.6,1c-0.2,0.4-0.2,0.8-0.2,1.3s0.1,0.9,0.2,1.3c0.2,0.4,0.3,0.8,0.6,1
			c0.3,0.3,0.6,0.5,1,0.6c0.4,0.2,0.8,0.3,1.3,0.3c0.5,0,1-0.1,1.4-0.3c0.4-0.2,0.7-0.4,1-0.8l-0.6-0.7L13.1,82.2z"/>
		<path class="st0" d="M38.1,81.2v2.5h-1.2v-6.4h1.9c0.4,0,0.8,0.1,1.1,0.1c0.3,0.1,0.5,0.2,0.8,0.4c0.2,0.2,0.3,0.4,0.4,0.6
			c0.1,0.2,0.2,0.5,0.2,0.8c0,0.2-0.1,0.4-0.1,0.6c-0.1,0.2-0.2,0.4-0.3,0.5c-0.1,0.2-0.3,0.3-0.4,0.4c-0.2,0.1-0.4,0.2-0.6,0.3
			c0.2,0.1,0.3,0.2,0.4,0.4l1.6,2.3h-1.4L39,81.4c-0.1-0.1-0.1-0.1-0.2-0.2c-0.1-0.1-0.2-0.1-0.3-0.1H38.1z M38.1,80.4h0.8
			c0.2,0,0.4-0.1,0.6-0.1c0.2-0.1,0.3-0.1,0.4-0.2s0.2-0.2,0.2-0.3c0.1-0.2,0.1-0.3,0.1-0.4c0-0.3-0.1-0.6-0.3-0.8
			c-0.2-0.2-0.5-0.3-1-0.3h-0.8C38.1,78.2,38.1,80.4,38.1,80.4z"/>
		<path class="st0" d="M74.8,81.2v2.5h-1.2v-6.4h1.9c0.4,0,0.8,0.1,1.1,0.1c0.3,0.1,0.5,0.2,0.8,0.4c0.2,0.2,0.3,0.4,0.4,0.6
			c0.1,0.2,0.2,0.5,0.2,0.8c0,0.2-0.1,0.4-0.1,0.6c-0.1,0.2-0.2,0.4-0.3,0.5c-0.1,0.2-0.3,0.3-0.4,0.4c-0.2,0.1-0.4,0.2-0.6,0.3
			c0.2,0.1,0.3,0.2,0.4,0.4l1.6,2.3h-1.4l-1.5-2.3c-0.1-0.1-0.1-0.1-0.2-0.2c-0.1-0.1-0.2-0.1-0.3-0.1H74.8z M74.8,80.4h0.8
			c0.2,0,0.4-0.1,0.6-0.1c0.2-0.1,0.3-0.1,0.4-0.2c0.1-0.1,0.2-0.2,0.2-0.3c0.1-0.2,0.1-0.3,0.1-0.4c0-0.3-0.1-0.6-0.3-0.8
			c-0.2-0.2-0.5-0.3-1-0.3h-0.8V80.4z"/>
		<path class="st0" d="M155.2,81.2v2.5H154v-6.4h1.9c0.4,0,0.8,0.1,1.1,0.1c0.3,0.1,0.5,0.2,0.8,0.4c0.2,0.2,0.3,0.4,0.4,0.6
			c0.1,0.2,0.2,0.5,0.2,0.8c0,0.2-0.1,0.4-0.1,0.6c-0.1,0.2-0.2,0.4-0.3,0.5c-0.1,0.2-0.3,0.3-0.4,0.4c-0.2,0.1-0.4,0.2-0.6,0.3
			c0.2,0.1,0.3,0.2,0.4,0.4l1.6,2.3h-1.4l-1.5-2.3c-0.1-0.1-0.1-0.1-0.2-0.2c-0.1-0.1-0.2-0.1-0.3-0.1H155.2z M155.2,80.4h0.8
			c0.2,0,0.4-0.1,0.6-0.1c0.2-0.1,0.3-0.1,0.4-0.2s0.2-0.2,0.2-0.3c0.1-0.2,0.1-0.3,0.1-0.4c0-0.3-0.1-0.6-0.3-0.8
			c-0.2-0.2-0.5-0.3-1-0.3h-0.8V80.4z"/>
		<path class="st0" d="M138.1,80.5v0.9h1v1.1c-0.2,0.1-0.4,0.2-0.5,0.2c-0.2,0.1-0.4,0.1-0.7,0.1c-0.3,0-0.6-0.1-0.8-0.2
			c-0.3-0.1-0.5-0.3-0.6-0.4c-0.2-0.2-0.3-0.4-0.4-0.7c-0.1-0.3-0.2-0.6-0.2-1c0-0.3,0.1-0.6,0.2-0.9c0.1-0.3,0.2-0.5,0.4-0.7
			c0.2-0.2,0.4-0.3,0.6-0.4c0.3-0.1,0.5-0.2,0.9-0.2c0.2,0,0.4,0,0.5,0.1c0.2,0.1,0.3,0.1,0.4,0.1s0.2,0.1,0.3,0.2
			c0.1,0.1,0.2,0.1,0.3,0.2l0.3,0.2l0.5-0.9c-0.3-0.3-0.6-0.4-1-0.6c-0.4-0.2-0.8-0.2-1.4-0.2c-0.5,0-1,0.1-1.4,0.2
			c-0.4,0.2-0.8,0.4-1,0.6s-0.5,0.6-0.6,1c-0.2,0.4-0.2,0.8-0.2,1.3s0.1,0.9,0.2,1.3c0.2,0.4,0.4,0.8,0.6,1c0.3,0.3,0.6,0.5,1,0.6
			c0.4,0.2,0.8,0.3,1.3,0.3c0.3,0,0.5,0,0.8-0.1c0.2,0,0.4-0.1,0.6-0.1c0.2-0.1,0.4-0.1,0.5-0.2s0.3-0.2,0.5-0.3v-2.6L138.1,80.5
			L138.1,80.5z"/>
		<path class="st0" d="M122.8,81c-0.1-0.2-0.2-0.3-0.3-0.5c-0.2-0.1-0.3-0.2-0.5-0.3c-0.2-0.1-0.4-0.2-0.5-0.2
			c-0.2-0.1-0.4-0.1-0.5-0.2s-0.3-0.1-0.5-0.2c-0.2-0.1-0.3-0.2-0.3-0.3c-0.1-0.1-0.1-0.2-0.1-0.4c0-0.1,0-0.2,0.1-0.3
			c0.1-0.1,0.1-0.2,0.2-0.3c0.1-0.1,0.2-0.1,0.3-0.2c0.1-0.1,0.3-0.1,0.4-0.1s0.3,0,0.5,0.1c0.1,0.1,0.3,0.1,0.3,0.2
			c0.1,0.1,0.2,0.1,0.3,0.2c0,0,0,0,0.1,0l0,0l0.3,0.2l0.4-0.9c-0.2-0.2-0.5-0.4-0.8-0.5c-0.3-0.1-0.6-0.2-1-0.2
			c-0.3,0-0.6,0.1-0.9,0.2c-0.3,0.1-0.5,0.2-0.6,0.4c-0.2,0.2-0.3,0.4-0.4,0.6c-0.1,0.2-0.2,0.4-0.2,0.6c0,0.3,0.1,0.5,0.1,0.8
			c0.1,0.2,0.2,0.4,0.3,0.5c0.2,0.1,0.3,0.2,0.5,0.3c0.2,0.1,0.4,0.2,0.5,0.2c0.2,0.1,0.4,0.1,0.5,0.2c0.2,0.1,0.3,0.1,0.5,0.2
			c0.2,0.1,0.3,0.2,0.3,0.3c0.1,0.1,0.1,0.2,0.1,0.4c0,0.3-0.1,0.5-0.3,0.7c-0.2,0.2-0.4,0.2-0.8,0.2c-0.2,0-0.4-0.1-0.5-0.1
			c-0.2-0.1-0.3-0.1-0.4-0.2c-0.1-0.1-0.2-0.2-0.3-0.2c0,0,0,0-0.1,0l0,0L119,82l-0.5,0.9c0.1,0.1,0.3,0.2,0.4,0.3
			c0.2,0.1,0.3,0.2,0.5,0.3c0.2,0.1,0.4,0.1,0.5,0.2c0.2,0.1,0.4,0.1,0.6,0.1c0.4,0,0.6-0.1,0.9-0.2c0.3-0.1,0.5-0.3,0.7-0.4
			c0.2-0.2,0.3-0.4,0.4-0.6c0.1-0.3,0.2-0.5,0.2-0.8C122.9,81.4,122.9,81.2,122.8,81z"/>
		<path class="st0" d="M176.3,81c-0.1-0.2-0.2-0.3-0.3-0.5c-0.2-0.1-0.3-0.2-0.5-0.3c-0.2-0.1-0.4-0.2-0.5-0.2
			c-0.2-0.1-0.4-0.1-0.5-0.2s-0.3-0.1-0.5-0.2c-0.2-0.1-0.3-0.2-0.3-0.3c-0.1-0.1-0.1-0.2-0.1-0.4c0-0.1,0-0.2,0.1-0.3
			c0.1-0.1,0.1-0.2,0.2-0.3c0.1-0.1,0.2-0.1,0.3-0.2c0.1-0.1,0.3-0.1,0.4-0.1s0.3,0,0.5,0.1c0.1,0.1,0.3,0.1,0.3,0.2
			c0.1,0.1,0.2,0.1,0.3,0.2h0.1l0,0l0.3,0.2l0.4-0.9c-0.2-0.2-0.5-0.4-0.8-0.5c-0.3-0.1-0.6-0.2-1-0.2c-0.3,0-0.6,0.1-0.9,0.2
			c-0.3,0.1-0.5,0.2-0.6,0.4c-0.2,0.2-0.3,0.4-0.4,0.6c-0.1,0.2-0.2,0.4-0.2,0.6c0,0.3,0.1,0.5,0.1,0.8c0.1,0.2,0.2,0.4,0.3,0.5
			c0.2,0.1,0.3,0.2,0.5,0.3c0.2,0.1,0.4,0.2,0.5,0.2c0.2,0.1,0.4,0.1,0.5,0.2s0.3,0.1,0.5,0.2c0.2,0.1,0.3,0.2,0.3,0.3
			c0.1,0.1,0.1,0.2,0.1,0.4c0,0.3-0.1,0.5-0.3,0.7c-0.2,0.2-0.4,0.2-0.8,0.2c-0.2,0-0.4-0.1-0.5-0.1c-0.2-0.1-0.3-0.1-0.4-0.2
			c-0.1-0.1-0.2-0.2-0.3-0.2c0,0,0,0-0.1,0l0,0l-0.3-0.2l-0.5,0.9c0.1,0.1,0.3,0.2,0.4,0.3c0.2,0.1,0.3,0.2,0.5,0.3
			c0.2,0.1,0.4,0.1,0.5,0.2c0.2,0.1,0.4,0.1,0.6,0.1c0.4,0,0.6-0.1,0.9-0.2c0.3-0.1,0.5-0.3,0.7-0.4c0.2-0.2,0.3-0.4,0.4-0.6
			c0.1-0.3,0.2-0.5,0.2-0.8C176.4,81.4,176.4,81.2,176.3,81z"/>
	</g>
</g>
</svg>
