<svg width="49" height="48" viewBox="0 0 49 48" fill="none" xmlns="http://www.w3.org/2000/svg">
<path fill-rule="evenodd" clip-rule="evenodd" d="M24.4788 4C25.1834 4 26.6011 6.16917 30.1412 7.79177C32.2352 8.75394 35.4556 9.28912 39.8021 9.39729C40.7398 9.39729 41.5 10.162 41.5 11.1053V25.3501C41.5 31.5558 36.3045 37.975 25.9135 44.6078C25.1423 45.0949 24.1713 45.1307 23.3667 44.7017L23.2139 44.6163L22.7724 44.326C12.7436 37.8868 7.65281 31.6469 7.5 25.6063V11.0882C7.5 10.1449 8.26017 9.38021 9.19788 9.38021C13.5444 9.26635 16.7648 8.73117 18.8588 7.77469C22.3564 6.16917 23.7742 4 24.4788 4ZM24.5722 18.0996C22.2989 18.0974 20.4275 19.8971 20.3275 22.1817V22.6343C20.4066 24.2565 21.3937 25.693 22.8743 26.3407V31.8917C22.9094 32.835 23.6981 33.571 24.6358 33.5357C25.5735 33.5003 26.3052 32.7069 26.27 31.7636V26.3407C27.8162 25.6619 28.816 24.1264 28.8169 22.4294V22.1817C28.7168 19.8971 26.8454 18.0974 24.5722 18.0996Z" fill="#009DD6"/>
</svg>
