<svg width="57" height="56" fill="none" xmlns="http://www.w3.org/2000/svg"><path fill-rule="evenodd" clip-rule="evenodd" d="M22.434 20.763c0-8.374 6.789-15.163 15.163-15.163 8.375 0 15.163 6.789 15.163 15.163 0 5.04-2.459 9.506-6.242 12.263h1.737c.301 0 .59.122.8.337a16.986 16.986 0 005.572-12.6c0-9.405-7.624-17.03-17.03-17.03-9.405 0-17.03 7.625-17.03 17.03 0 1.809.283 3.552.805 5.188.837.28 1.64.633 2.401 1.053a15.104 15.104 0 01-1.339-6.24z" fill="#138468"/><path d="M37.667 10.415v1.874m0 16.821v1.875m-5.245-6.393c0 2.15 2.3 3.897 5.162 3.897 2.863 0 5.163-1.747 5.163-3.897 0-2.15-2.3-3.898-5.163-3.898-2.863 0-5.162-1.736-5.162-3.886 0-2.15 2.3-3.898 5.162-3.898 2.863 0 5.163 1.748 5.163 3.898" stroke="#138468" stroke-width="1.2" stroke-linecap="round" stroke-linejoin="round"/><path clip-rule="evenodd" d="M29.657 46.43c-2.422 4.647-7.283 7.82-12.886 7.82-8.02 0-14.521-6.502-14.521-14.522s6.501-14.521 14.521-14.521c5.603 0 10.464 3.173 12.886 7.82h18.598c.301 0 .59.12.8.336l4.861 4.983c.452.462.418 1.21-.073 1.629l-6.803 5.813a1.117 1.117 0 01-1.48-.025l-1.68-1.539a1.117 1.117 0 00-1.51 0l-1.654 1.515a1.117 1.117 0 01-1.509 0l-1.654-1.515a1.117 1.117 0 00-1.51 0l-2.088 1.913a1.116 1.116 0 01-.754.294h-3.544z" stroke="#FB6330" stroke-width="1.2"/><path d="M14.733 39.666a2.567 2.567 0 11-5.133 0 2.567 2.567 0 015.133 0z" stroke="#FB6330" stroke-width="1.2"/></svg>