<svg width="30" height="30" fill="none" xmlns="http://www.w3.org/2000/svg"><path fill-rule="evenodd" clip-rule="evenodd" d="M17.333 2.71a.625.625 0 100 1.25c2.887 0 5.048 1.019 6.49 2.585 1.45 1.575 2.217 3.749 2.217 6.122a.625.625 0 001.25 0c0-2.637-.854-5.13-2.547-6.969-1.702-1.847-4.208-2.989-7.41-2.989zm0 5.511a.625.625 0 100 1.25c1.317 0 2.194.384 2.746.97.558.591.87 1.48.87 2.652a.625.625 0 001.25 0c0-1.383-.369-2.618-1.21-3.51-.848-.9-2.092-1.362-3.656-1.362z" fill="#FFD42F"/><path fill-rule="evenodd" clip-rule="evenodd" d="M9.616 12.667a16.011 16.011 0 007.582 7.612l1.459-1.598a1.75 1.75 0 011.697-.525l4.946 1.166a1.75 1.75 0 011.365 1.727V25.4a1.271 1.271 0 01-1.266 1.266C13.49 26.666 3.334 16.51 3.334 4.6A1.272 1.272 0 014.6 3.335h4.252a1.75 1.75 0 011.75 1.464l.793 4.76c.082.493-.052.999-.368 1.387l-1.411 1.721z" fill="#7849B8"/></svg>