<svg width="30" height="30" fill="none" xmlns="http://www.w3.org/2000/svg"><path fill-rule="evenodd" clip-rule="evenodd" d="M27.222 15c0 6.75-5.472 12.222-12.222 12.222C8.25 27.222 2.778 21.75 2.778 15 2.778 8.25 8.25 2.778 15 2.778A12.222 12.222 0 0127.222 15z" fill="#009DD6"/><path fill-rule="evenodd" clip-rule="evenodd" d="M15 13c.518 0 .938.42.938.937v7.44a.937.937 0 11-1.876 0v-7.44c0-.518.42-.938.938-.938z" fill="#fff"/><path d="M15 11.28a1.329 1.329 0 100-2.657 1.329 1.329 0 000 2.658z" fill="#fff"/></svg>