<svg width="49" height="48" viewBox="0 0 49 48" fill="none" xmlns="http://www.w3.org/2000/svg">
<path d="M17.824 30.6589C14.3978 28.2091 12.1249 24.8418 12.1249 20.5484C12.1249 16.3378 14.3712 12.447 18.0177 10.3417C21.6642 8.23637 26.1569 8.23637 29.8034 10.3417C33.4499 12.447 35.6963 16.3378 35.6963 20.5484C35.6963 24.8334 33.3897 28.2176 29.9971 30.6504C28.9784 31.5681 29.1552 33.3864 29.1552 33.3864V40.3569C29.1552 40.3569 28.5575 44.0862 23.919 44.0862C19.2805 44.0862 18.6827 40.3569 18.6827 40.3569V33.3948C18.6827 33.3948 18.8427 31.5765 17.824 30.6589Z" fill="#FFD42F"/>
<mask id="mask0_1531_8468" style="mask-type:luminance" maskUnits="userSpaceOnUse" x="12" y="8" width="24" height="37">
<path d="M17.824 30.6589C14.3978 28.2091 12.1249 24.8418 12.1249 20.5484C12.1249 16.3378 14.3712 12.447 18.0177 10.3417C21.6642 8.23637 26.1569 8.23637 29.8034 10.3417C33.4499 12.447 35.6963 16.3378 35.6963 20.5484C35.6963 24.8334 33.3897 28.2176 29.9971 30.6504C28.9784 31.5681 29.1552 33.3864 29.1552 33.3864V40.3569C29.1552 40.3569 28.5575 44.0862 23.919 44.0862C19.2805 44.0862 18.6827 40.3569 18.6827 40.3569V33.3948C18.6827 33.3948 18.8427 31.5765 17.824 30.6589Z" fill="white"/>
</mask>
<g mask="url(#mask0_1531_8468)">
<path d="M30.3174 35.6768C28.4519 37.0495 26.2018 37.8005 23.8858 37.8234C21.5726 37.7987 19.3257 37.0478 17.4625 35.6768V47.4625H30.3174V35.6768Z" fill="#FB6330"/>
</g>
<path d="M8.00874 4.6377L11.5781 8.2155" stroke="#FFBA8E" stroke-width="1.46939" stroke-linecap="round" stroke-linejoin="round"/>
<path d="M8.00874 33.6725L11.5781 30.0947" stroke="#FFBA8E" stroke-width="1.46939" stroke-linecap="round" stroke-linejoin="round"/>
<path d="M5.13753 19.3701H8.50488" stroke="#FFD42F" stroke-width="1.46939" stroke-linecap="round" stroke-linejoin="round"/>
<path d="M40.1494 33.6725L36.58 30.0947" stroke="#FFBA8E" stroke-width="1.46939" stroke-linecap="round" stroke-linejoin="round"/>
<path d="M40.1494 4.6377L36.58 8.2155" stroke="#FFBA8E" stroke-width="1.46939" stroke-linecap="round" stroke-linejoin="round"/>
<path d="M43.8623 19.3701H40.495" stroke="#FFD42F" stroke-width="1.46939" stroke-linecap="round" stroke-linejoin="round"/>
</svg>
