<svg width="49" height="48" fill="none" xmlns="http://www.w3.org/2000/svg"><path fill-rule="evenodd" clip-rule="evenodd" d="M44.5 24c0 11.046-8.954 20-20 20s-20-8.954-20-20 8.954-20 20-20a20 20 0 0120 20z" fill="#138468"/><path fill-rule="evenodd" clip-rule="evenodd" d="M35.14 17.326c.47.444.481 1.175.027 1.634l-6.754 6.811-6.57 6.863a1.196 1.196 0 01-.832.366 1.198 1.198 0 01-.85-.322l-6.87-6.445-.417-.381a1.137 1.137 0 01-.054-1.634 1.203 1.203 0 011.672-.053l.422.386.01.01 6.01 5.638 5.758-6.014.014-.015 6.76-6.818a1.203 1.203 0 011.674-.026z" fill="#fff"/></svg>