<svg width="41" height="40" viewBox="0 0 41 40" fill="none" xmlns="http://www.w3.org/2000/svg">
<path d="M38 0H13C11.6193 0 10.5 1.11929 10.5 2.5V15.8333C10.5 17.214 11.6193 18.3333 13 18.3333H38C39.3807 18.3333 40.5 17.214 40.5 15.8333V2.5C40.5 1.11929 39.3807 0 38 0Z" fill="#138468"/>
<path d="M25.5 3.33301V4.38301" stroke="white" stroke-width="1.5" stroke-linecap="round" stroke-linejoin="round"/>
<path d="M25.5 13.875V14.925" stroke="white" stroke-width="1.5" stroke-linecap="round" stroke-linejoin="round"/>
<path d="M22.583 11.3245C22.583 12.5412 23.883 13.5245 25.4913 13.5245C27.0997 13.5245 28.3997 12.5412 28.3997 11.3245C28.3997 10.1079 27.0997 9.16621 25.4997 9.16621C23.8997 9.16621 22.583 8.14954 22.583 6.93288C22.583 5.71621 23.883 4.74121 25.4997 4.74121C27.1163 4.74121 28.408 5.72454 28.408 6.93288" stroke="white" stroke-width="1.5" stroke-linecap="round" stroke-linejoin="round"/>
<path fill-rule="evenodd" clip-rule="evenodd" d="M13.983 23.9752C14.6643 23.825 15.3727 23.8508 16.0413 24.0502L21.458 25.6502L23.2663 26.2669C24.1046 26.5487 24.7539 27.2198 25.008 28.0669C25.2472 28.8728 25.0411 29.7451 24.4663 30.3585L24.3413 30.5002C23.7223 31.1611 22.774 31.399 21.9163 31.1086L16.9997 29.4419C16.5706 29.3118 16.1155 29.5444 15.9697 29.9683C15.8239 30.3923 16.0397 30.8556 16.458 31.0169L21.383 32.6835C22.8576 33.1813 24.487 32.7706 25.5497 31.6335L25.6247 31.5502L29.5997 28.2169C30.3715 27.5697 31.3946 27.3063 32.383 27.5002H32.583H32.633C33.5862 27.7412 34.2529 28.6003 34.2497 29.5835C34.2497 30.6359 33.7639 31.6294 32.933 32.2752L25.433 38.1502C24.1378 39.1634 22.4272 39.475 20.858 38.9835L10.0913 35.6502C9.04499 35.3243 7.93445 35.2613 6.85799 35.4669L4.22465 35.9669C3.78052 36.0513 3.32116 35.9516 2.95192 35.6908C2.58267 35.43 2.33522 35.0303 2.26632 34.5835L1.15799 28.3752C1.00368 27.4931 1.57408 26.6467 2.44965 26.4585L13.983 23.9752Z" fill="#7849B8"/>
</svg>
